<svg xmlns="http://www.w3.org/2000/svg" width="85" height="112" fill="none"><g clip-path="url(#a)"><path fill="#D41B2C" d="M78.738 58.178a38.865 38.865 0 0 1-3.834 6.442 2.536 2.536 0 0 0-2.48.619 32.787 32.787 0 0 1-9.636 6.726 11.03 11.03 0 0 1 1.368 2.654c.345.967-1.278 2.294-.997 2.99 1.431 4.123-1.879 10.965-2.3 12.267a28.464 28.464 0 0 1-2.365 5.347 90.264 90.264 0 0 0-8.115 6.198l-1.482.554H48.666l-6.556 2.242c-1.572.529-3.144 1.07-4.703 1.624a65.119 65.119 0 0 1-5.712-4.729 14.616 14.616 0 0 0-.767 4.78C12.69 92.028 8.052 86.525 3.08 74.052a89.816 89.816 0 0 1 1.01-9.947c.78-4.793 2.172-9.561 1.968-14.432a310.51 310.51 0 0 1 3.08-6.533 46.542 46.542 0 0 1 8.102-10.682c2.556-10.18 3.183-10.553 5.636-14.882a50.877 50.877 0 0 1 6.147-14.47c4.716-.529 9.1 6.558 12.193 15.9 3.374-.593 4.166-.168 8.805 1.147a24.824 24.824 0 0 1 2.812-2.113c1.06-.683 4.153-7.087 8.217-6.443 2.428 8.491 1.585 11.03 1.419 15.063a13.875 13.875 0 0 1 3.68 2.976c.27 1.51.668 2.993 1.19 4.433a16.492 16.492 0 0 1 1.827 3.53 16.274 16.274 0 0 1-.946 3.634 49.204 49.204 0 0 0 6.722 2.86c1.163.31 4.908.8 6.978 3.132.37 3.015-2.863 7.023-2.863 7.023a8.144 8.144 0 0 1-.32 3.865m6.2-11.339-.116-.953-.626-.722c-2.428-2.719-6.16-3.53-7.95-3.866l-.472-.116a27.181 27.181 0 0 1-3.834-1.546c.134-.57.236-1.146.307-1.727v-.63l-.192-.606a18.735 18.735 0 0 0-2.02-4.008 25.581 25.581 0 0 1-.894-3.57l-.128-.682-.396-.554a12.58 12.58 0 0 0-2.99-2.783v-.142c.242-3.234.498-6.598-1.65-14.174l-.549-1.881-1.917-.297a6.035 6.035 0 0 0-1.073-.09c-4.256 0-7.131 3.866-8.844 6.262l-.639.85c-.6.387-1.176.813-1.648 1.173-1.8-.633-3.681-.998-5.585-1.082h-.448C40.551 8.272 36.027 0 29.496 0h-.792l-1.482.193-.793 1.289a53.51 53.51 0 0 0-6.39 14.895l-.562.992c-1.892 3.248-2.76 4.794-4.984 13.556a47.066 47.066 0 0 0-8.103 10.85c-.907 1.816-1.955 4.046-3.131 6.623l-.294.67v.734a42.024 42.024 0 0 1-1.188 9.754c-.256 1.289-.524 2.68-.755 4.046A95.71 95.71 0 0 0-.013 73.911v.683l.256.644c5.278 13.182 10.39 19.083 28.78 33.154L33.74 112l.154-4.896 1.623 1.288 1.278.992 1.546-.592c1.547-.555 3.144-1.096 4.652-1.611l3.4-1.147 3.45-1.185 1.572-.567.473-.194.383-.322a89.636 89.636 0 0 1 7.796-5.992l.614-.412.37-.631a31.157 31.157 0 0 0 2.62-5.94c0-.13.166-.426.307-.76 1.048-2.578 3.182-7.925 2.275-12.32a4.724 4.724 0 0 0 .677-4.174c0-.09 0-.18-.09-.27a35.303 35.303 0 0 0 7.4-5.619l1.687.567 1.278-1.765a41.415 41.415 0 0 0 4.243-7.035l.115-.284a13.4 13.4 0 0 0 .537-3.865c1.278-1.92 3.118-5.155 2.722-8.299"/><path fill="#000" d="M55.9 93.677c.103-1.11.056-2.228-.14-3.325a39.922 39.922 0 0 1-14.276 9.716c-6.173-3.865-8.614-5.154-15.119-11.159a19.731 19.731 0 0 0-.473 4.304c-12.997-12.421-12.907-14.69-15.336-21.66a42.477 42.477 0 0 0 12.947 12.383c.04-.905.207-1.799.498-2.655a60.574 60.574 0 0 0 12.32 7.1 207.057 207.057 0 0 1-13.227-16.48 9.23 9.23 0 0 0-.524 2.95 15.82 15.82 0 0 1-3.834-5.695 8.828 8.828 0 0 0-1.38 2.01c-2.403-5.231-2.48-6.752.843-11.751a9.23 9.23 0 0 0 2.556 5.334c.144-.456.35-.89.613-1.288 1.994 2.5 5.253 5.708 7.668 6.764 1.278.567 5.585.452 6.94-.502-5.777-3.273-7.885-4.433-12.269-14.341a22.862 22.862 0 0 0 5.687 1.739c-2.34-1.9-4.3-4.23-5.776-6.868 0 0 4.78-.85 6.006-2.19.307-.335-.37-1.224-.537-1.52a24.785 24.785 0 0 0 6.531-3.635 5.076 5.076 0 0 1 3.131-.528c1.61 1.134 2.224 3.144 3.642 4.11a5.453 5.453 0 0 0 3.834.09c1.18-.409 2.301-.972 3.336-1.674a8.072 8.072 0 0 1-5.112-1.688c-1.738-1.418-3.233-3.467-4.588-4.343a5.757 5.757 0 0 1 1.47-1.353 6.543 6.543 0 0 1-2.237-1.288c2.85-1.83 3.323-3.866 4.269-4.381a3.946 3.946 0 0 1 2.313-.258 3.083 3.083 0 0 0-.55-1.662c2.429-6.546 4.473-3.157 5.943-4.613 3.962 2.203 5.968 4.497 7.936 9.677a20.65 20.65 0 0 0-2.683-9.123c3.003 2.268 3.949 3.788 5.112 9.342.294-4.523 1.278-5.837 1.278-5.837.971.412 1.93 1.288 2.006 1.74.192 1.288.473 3.31.473 3.31a16.035 16.035 0 0 1 1.764 3.351c-.166.503-.358 1.289-.665 1.289-.588 0-.971-1.006-.971-1.006-.524.606-.652 1.38-1.035 1.392a2.298 2.298 0 0 1-1.726-.992c.088.597.297 1.17.613 1.681.317.513.735.953 1.228 1.296a60.889 60.889 0 0 0 8.204 3.994 6.436 6.436 0 0 0-1.533.657 14.033 14.033 0 0 0-.32 3.44c0 .4 2.3 1.92 3.208 4.923a3.37 3.37 0 0 0 1.457 1.288c.459-.165.89-.4 1.278-.695a10.796 10.796 0 0 1-.243 2.242 7.9 7.9 0 0 1-2.121 3.04 6.942 6.942 0 0 0-.971-1.288c-.92 0-7.669 3.788-14.646 1.933-4.269-1.121-8.806-3.866-11.873-1.869 4.447.439 9.112 3.866 12.026 4.394 4.728.825 6.058-.167 8.946-.425 1.495-.142 2.288.31 2.198.696-.23 1.005-6.505 5.502-11.936 4.29-2.224-2.1-6.978-3.427-10.224-3.362a12.644 12.644 0 0 0-5.049 1.984c3.834.348 5.42 1.134 8.589 4.69a5.337 5.337 0 0 0-3.502 1.057c4.907 3.247 4.064 10.09 2.121 16.364a20.688 20.688 0 0 0 7.426-5.154c.153.85.204 1.715.153 2.577a20.1 20.1 0 0 0 4.358-7.035c1.163 4.91-2.109 10.308-5.956 14.457M31.3 24.972c.702-2.242 1.89-5.154 1.086-8.04a2.765 2.765 0 0 1 2.556.76 5.561 5.561 0 0 0-1.004-3.688 5.481 5.481 0 0 0-3.137-2.15c-1.623 1.74-5.636 11.855-2.428 21.094a2.414 2.414 0 0 1-2.07.76 4.5 4.5 0 0 1-.64 2.577 21.717 21.717 0 0 0-10.901 7.332 22.08 22.08 0 0 1 8.077-10.72 33.773 33.773 0 0 0-.383-6.018c.822.826 1.73 1.56 2.709 2.19a35.378 35.378 0 0 1 5.431-22.626c1.969 0 7.464 5.876 8.563 17.33a2.133 2.133 0 0 1-1.738 0 11.587 11.587 0 0 1-4.83 6.443 2.146 2.146 0 0 0-.873-.998 2.12 2.12 0 0 0-1.288-.29c.151-.41.416-.768.762-1.03.347-.263.761-.42 1.194-.452a5.6 5.6 0 0 1-1.087-2.345m25.56-3.35a2.556 2.556 0 0 1 1.521-1.096 8.673 8.673 0 0 0 .46 4.497 25.651 25.651 0 0 0-4.498-2.577c.856-3.865 3.297-8.517 5.47-8.324a19.076 19.076 0 0 1 .728 10.309c-.677-5.27-1.815-5.283-1.38-7.538-2.173 1.12-2.3 1.92-2.3 4.742M79.862 47.25c.333 1.61-1.482 3.66-1.482 3.66a6.26 6.26 0 0 0 .23-2.05s-.6-.85-2.978-.438a7.858 7.858 0 0 1-2.108-.54c1.559-1.057 4.55-2.294 6.39-.632m2.083.116c-2.058-2.332-5.802-2.822-6.965-3.131a49.205 49.205 0 0 1-6.812-3.003 16.09 16.09 0 0 0 .946-3.672 16.487 16.487 0 0 0-1.828-3.53 26.987 26.987 0 0 1-1.188-4.395 13.873 13.873 0 0 0-3.681-2.95c.166-4.02 1.01-6.572-1.419-15.063-4.064-.645-7.156 5.76-8.217 6.442a24.116 24.116 0 0 0-2.812 2.14c-4.639-1.29-5.431-1.753-8.805-1.16-3.093-9.38-7.477-16.468-12.205-15.94a51.612 51.612 0 0 0-6.147 14.47c-2.416 4.33-3.068 4.717-5.624 14.883a46.762 46.762 0 0 0-8.102 10.695 280.687 280.687 0 0 0-3.08 6.52c.204 4.87-1.189 9.6-1.968 14.432a89.735 89.735 0 0 0-1.01 9.96c4.972 12.46 9.61 17.963 27.797 31.879a14.615 14.615 0 0 1 .767-4.781 64.75 64.75 0 0 0 5.712 4.729c1.56-.554 3.131-1.095 4.703-1.623l6.505-2.242H48.794l1.483-.554a91.877 91.877 0 0 1 8.102-6.198 27.675 27.675 0 0 0 2.377-5.348c.422-1.288 3.732-8.143 2.3-12.267-.255-.695 1.279-2.023.998-2.989a11.024 11.024 0 0 0-1.368-2.654 32.79 32.79 0 0 0 9.636-6.727 2.536 2.536 0 0 1 2.48-.619 38.866 38.866 0 0 0 3.834-6.442 8.142 8.142 0 0 0 .32-3.865s3.233-4.008 2.85-7.023"/><path fill="#fff" d="M49.395 41.723c-1.1-.245-4.064-3.724-5.56-4.072a9.098 9.098 0 0 1 5.458-2.255 8.07 8.07 0 0 0-.422-1.714c3.029.4 4.933 4.046 6.569 4.626a8.721 8.721 0 0 0 4.115-.141 4.712 4.712 0 0 1-.92 2.358 7.704 7.704 0 0 1-1.125 4.819 11.558 11.558 0 0 0-3.834-4.11 8.028 8.028 0 0 1-4.32.54m12.461 37.497a20.102 20.102 0 0 1-4.307 6.984c.052-.862 0-1.727-.153-2.577a20.687 20.687 0 0 1-7.425 5.154c1.942-6.275 2.786-13.117-2.122-16.364a5.337 5.337 0 0 1 3.502-1.057c-3.17-3.556-4.703-4.342-8.588-4.69a12.644 12.644 0 0 1 5.048-1.985c3.284-.064 8.039 1.289 10.224 3.363 5.431 1.212 11.706-3.285 11.937-4.29.089-.387-.703-.838-2.199-.696-2.862.258-4.191 1.288-8.946.425-2.913-.49-7.578-3.956-12.026-4.394 3.068-2.062 7.604.747 11.873 1.868 6.978 1.856 13.726-1.945 14.646-1.932.372.39.698.822.971 1.288a7.901 7.901 0 0 0 2.122-3.04c.178-.727.281-1.47.306-2.217-.388.296-.819.53-1.278.696a3.254 3.254 0 0 1-1.444-1.289c-.92-3.002-3.195-4.523-3.22-4.922a14.032 14.032 0 0 1 .32-3.44c.48-.285.996-.506 1.533-.658a59.848 59.848 0 0 1-8.192-3.994 4.35 4.35 0 0 1-1.265-1.285 4.39 4.39 0 0 1-.64-1.692 2.32 2.32 0 0 0 1.726.993c.383 0 .511-.786 1.035-1.392 0 0 .383.992.971 1.005.307 0 .499-.786.665-1.289a16.037 16.037 0 0 0-1.713-3.35s-.28-2.01-.472-3.311c-.077-.477-1.036-1.289-2.007-1.74 0 0-.907 1.289-1.278 5.837-1.188-5.553-2.134-7.074-5.112-9.342a20.652 20.652 0 0 1 2.684 9.123c-1.968-5.154-3.975-7.473-7.937-9.677-1.47 1.456-3.514-1.933-5.942 4.613.34.489.53 1.066.55 1.663a3.944 3.944 0 0 0-2.314.257c-.946.554-1.419 2.577-4.269 4.381a6.545 6.545 0 0 0 2.237 1.289 5.756 5.756 0 0 0-1.47 1.353c1.355.876 2.85 2.925 4.588 4.342a8.147 8.147 0 0 0 5.112 1.688 14.292 14.292 0 0 1-3.335 1.675 5.453 5.453 0 0 1-3.834-.09c-1.419-.966-2.032-2.977-3.642-4.11a5.075 5.075 0 0 0-3.132.528 24.786 24.786 0 0 1-6.53 3.633c.166.297.843 1.186.537 1.521-1.278 1.289-6.007 2.19-6.007 2.19a23.83 23.83 0 0 0 5.687 6.804 22.864 22.864 0 0 1-5.674-1.714C28 65.317 30.11 66.476 35.886 69.75c-1.354.953-5.648 1.07-6.939.502-2.377-1.056-5.636-4.265-7.668-6.765-.263.4-.47.833-.613 1.289a9.23 9.23 0 0 1-2.556-5.335c-3.323 5-3.247 6.52-.844 11.752a8.828 8.828 0 0 1 1.38-2.01 15.816 15.816 0 0 0 3.834 5.695 9.23 9.23 0 0 1 .524-2.95A207.077 207.077 0 0 0 36.27 88.38a60.579 60.579 0 0 1-12.32-7.1 9.567 9.567 0 0 0-.498 2.655 42.477 42.477 0 0 1-12.947-12.383c2.48 6.97 2.39 9.239 15.336 21.66.016-1.45.192-2.893.524-4.304 6.505 6.03 8.946 7.255 15.12 11.159a39.92 39.92 0 0 0 14.275-9.715 12.38 12.38 0 0 1 .14 3.324c3.834-4.123 7.119-9.548 5.956-14.458"/><path fill="#000" d="M48.45 38.14a3.278 3.278 0 0 1 2.197-.618c.806.657 1.943 1.766 1.943 1.766l-2.812.244a3.75 3.75 0 0 1-1.277-1.391m5.175 3.092a11.56 11.56 0 0 1 3.834 4.162 7.705 7.705 0 0 0 1.074-4.819 4.712 4.712 0 0 0 .92-2.358 8.723 8.723 0 0 1-4.115.142c-1.636-.58-3.54-4.227-6.569-4.626.203.554.344 1.129.422 1.714a9.098 9.098 0 0 0-5.457 2.255c1.495.348 4.46 3.865 5.559 4.072a8.029 8.029 0 0 0 4.332-.542Z"/><path fill="#fff" d="M50.647 37.522a3.278 3.278 0 0 0-2.198.619 3.751 3.751 0 0 0 1.278 1.391l2.812-.244s-1.138-1.108-1.943-1.766M30.43 28.799c.448-.043.9.059 1.287.29.388.232.694.581.872.998a11.587 11.587 0 0 0 4.831-6.442 2.131 2.131 0 0 0 1.738 0c-1.086-11.391-6.594-17.202-8.562-17.202a35.378 35.378 0 0 0-5.432 22.678 16.131 16.131 0 0 1-2.71-2.19c.308 1.99.437 4.004.384 6.017a22.119 22.119 0 0 0-8.077 10.708 21.715 21.715 0 0 1 10.902-7.32 4.5 4.5 0 0 0 .639-2.576 2.397 2.397 0 0 0 2.07-.76c-3.208-9.24.805-19.329 2.428-21.107a5.494 5.494 0 0 1 3.162 2.146 5.574 5.574 0 0 1 1.017 3.704 2.764 2.764 0 0 0-2.556-.76c.805 2.848-.383 5.798-1.086 8.04a5.69 5.69 0 0 0 1.086 2.346 2.251 2.251 0 0 0-1.193.451c-.347.263-.611.62-.762 1.03M60.565 24.482c.71-3.437.458-7.007-.729-10.308-2.172-.193-4.614 4.497-5.47 8.324a25.647 25.647 0 0 1 4.499 2.577 8.673 8.673 0 0 1-.46-4.497c-.626.158-1.17.55-1.521 1.095 0-2.822.128-3.62 2.3-4.742-.434 2.255.703 2.268 1.38 7.538M73.485 47.74c.675.278 1.385.46 2.109.542 2.377-.413 2.978.425 2.978.425a6.366 6.366 0 0 1-.23 2.062s1.814-2.062 1.482-3.673c-1.79-1.65-4.78-.412-6.39.644"/></g><defs><clipPath id="a"><path fill="#fff" d="M0 0h85v112H0z"/></clipPath></defs></svg>